<?xml version="1.0" standalone="no"?>
<!DOCTYPE svg PUBLIC "-//W3C//DTD SVG 20010904//EN"
 "http://www.w3.org/TR/2001/REC-SVG-20010904/DTD/svg10.dtd">
<svg version="1.0" xmlns="http://www.w3.org/2000/svg"
 width="160.000000pt" height="160.000000pt" viewBox="0 0 160.000000 160.000000"
 preserveAspectRatio="xMidYMid meet">
<metadata>
Created by potrace 1.11, written by Peter Selinger 2001-2013
</metadata>
<g transform="translate(0.000000,160.000000) scale(0.100000,-0.100000)"
fill="#000000" stroke="none">
<path d="M0 800 l0 -800 800 0 800 0 0 800 0 800 -800 0 -800 0 0 -800z m950
231 c0 -14 8 -21 28 -23 21 -2 28 -9 30 -30 2 -20 9 -28 23 -28 18 0 19 -8 19
-150 0 -142 -1 -150 -19 -150 -14 0 -21 -8 -23 -27 -2 -22 -9 -29 -30 -31 -20
-2 -28 -9 -28 -23 0 -18 -8 -19 -150 -19 -142 0 -150 1 -150 19 0 14 -8 21
-27 23 -22 2 -29 9 -31 31 -2 19 -9 27 -23 27 -18 0 -19 8 -19 150 0 142 1
150 19 150 14 0 21 8 23 28 2 21 9 28 31 30 19 2 27 9 27 23 0 18 8 19 150 19
142 0 150 -1 150 -19z"/>
</g>
</svg>
